<?xml version="1.0" encoding="UTF-8" standalone="no"?>
<!-- Created with Inkscape (http://www.inkscape.org/) -->

<svg
   xmlns:dc="http://purl.org/dc/elements/1.1/"
   xmlns:cc="http://creativecommons.org/ns#"
   xmlns:rdf="http://www.w3.org/1999/02/22-rdf-syntax-ns#"
   xmlns:svg="http://www.w3.org/2000/svg"
   xmlns="http://www.w3.org/2000/svg"
   xmlns:sodipodi="http://sodipodi.sourceforge.net/DTD/sodipodi-0.dtd"
   xmlns:inkscape="http://www.inkscape.org/namespaces/inkscape"
   width="210mm"
   height="297mm"
   viewBox="0 0 210 297"
   version="1.1"
   id="svg8"
   inkscape:version="0.92.3 (2405546, 2018-03-11)"
   sodipodi:docname="drawing2.svg">
  <defs
     id="defs2" />
  <sodipodi:namedview
     id="base"
     pagecolor="#ffffff"
     bordercolor="#666666"
     borderopacity="1.0"
     inkscape:pageopacity="0.0"
     inkscape:pageshadow="2"
     inkscape:zoom="1"
     inkscape:cx="477.67654"
     inkscape:cy="657.88528"
     inkscape:document-units="px"
     inkscape:current-layer="layer1"
     showgrid="false"
     showborder="false"
     inkscape:measure-start="-461,690"
     inkscape:measure-end="-617,695"
     inkscape:window-width="1920"
     inkscape:window-height="1017"
     inkscape:window-x="-8"
     inkscape:window-y="-8"
     inkscape:window-maximized="1"
     showguides="true"
     inkscape:guide-bbox="true" />
  <metadata
     id="metadata5">
    <rdf:RDF>
      <cc:Work
         rdf:about="">
        <dc:format>image/svg+xml</dc:format>
        <dc:type
           rdf:resource="http://purl.org/dc/dcmitype/StillImage" />
        <dc:title></dc:title>
      </cc:Work>
    </rdf:RDF>
  </metadata>
  <g
     inkscape:label="Layer 1"
     inkscape:groupmode="layer"
     id="layer1">
    <g
       id="g4398"
       transform="translate(-2.7925033e-6)">
      <path
         id="rect4384"
         d="m 81.479262,64.615176 v 4.688085 H 48.714855 v 7.520991 H 97.563552 V 64.615176 Z"
         style="opacity:1;fill:#00ffd3;fill-opacity:1;stroke:none;stroke-width:0.16330224"
         inkscape:connector-curvature="0" />
      <path
         style="opacity:1;fill:#00eac9;fill-opacity:1;stroke:none;stroke-width:0.16330224"
         d="m 113.64733,64.615176 v 4.688085 h 32.76441 v 7.520991 H 97.563552 V 64.615176 Z"
         id="path4383"
         inkscape:connector-curvature="0" />
    </g>
    <g
       id="g4402">
      <path
         transform="scale(0.26458333)"
         id="rect4368"
         d="M 206.75195 305.19727 L 239.46289 594.84375 C 243.99743 634.99431 264.39288 668.0332 295.36133 668.0332 L 301.04492 668.0332 L 368.74219 668.0332 L 368.74219 305.19727 L 245.14453 305.19727 L 206.75195 305.19727 z M 495.58789 609.51562 C 495.06185 611.8886 494.47748 614.22205 493.83398 616.50781 C 494.47749 614.22205 495.06184 611.8886 495.58789 609.51562 z M 491.73047 623.21875 C 490.97211 625.40464 490.1558 627.53601 489.28516 629.60938 C 490.15582 627.53601 490.97209 625.40464 491.73047 623.21875 z M 472.22461 655.46094 C 471.52792 656.12135 470.81871 656.76092 470.09766 657.375 C 470.81907 656.76063 471.52759 656.12168 472.22461 655.46094 z M 463.28516 662.24414 C 461.70074 663.17533 460.0706 664.00137 458.39453 664.71875 C 460.07061 664.00137 461.70072 663.17533 463.28516 662.24414 z "
         style="opacity:1;fill:#00ffd3;fill-opacity:1;stroke:none;stroke-width:2.1537261" />
      <path
         style="opacity:1;fill:#00eac9;fill-opacity:1;stroke:none;stroke-width:0.56984001"
         d="m 97.563037,80.75011 v 96.00034 h 17.912083 1.50379 c 8.19374,0 13.58952,-8.74154 14.78927,-19.36471 l 8.65529,-76.63563 h -10.15804 z"
         id="path4372"
         inkscape:connector-curvature="0" />
    </g>
  </g>
</svg>
