<?xml version="1.0" encoding="UTF-8" standalone="no"?>
<!-- Created with Inkscape (http://www.inkscape.org/) -->

<svg
   xmlns:dc="http://purl.org/dc/elements/1.1/"
   xmlns:cc="http://creativecommons.org/ns#"
   xmlns:rdf="http://www.w3.org/1999/02/22-rdf-syntax-ns#"
   xmlns:svg="http://www.w3.org/2000/svg"
   xmlns="http://www.w3.org/2000/svg"
   xmlns:sodipodi="http://sodipodi.sourceforge.net/DTD/sodipodi-0.dtd"
   xmlns:inkscape="http://www.inkscape.org/namespaces/inkscape"
   width="374.94632mm"
   height="374.94632mm"
   viewBox="0 0 374.94632 374.94632"
   version="1.1"
   id="svg8"
   inkscape:version="0.92.3 (2405546, 2018-03-11)"
   sodipodi:docname="Morphcoin.svg">
  <defs
     id="defs2">
    <style
       id="style815">.cls-1{fill:none;stroke:#e5cc71;stroke-width:60px;}.cls-2{fill:#c9c9c9;stroke:#a1997d;stroke-width:10px;}.cls-3{fill:#e5cc71;}.cls-4,.cls-5{isolation:isolate;}.cls-5{font-size:363.78px;fill:#fff;font-family:ArialMT, Arial;}.cls-6{fill:#f9f7f9;}</style>
  </defs>
  <sodipodi:namedview
     id="base"
     pagecolor="#ffffff"
     bordercolor="#666666"
     borderopacity="1.0"
     inkscape:pageopacity="0.0"
     inkscape:pageshadow="2"
     inkscape:zoom="0.35"
     inkscape:cx="258.56001"
     inkscape:cy="645.7029"
     inkscape:document-units="mm"
     inkscape:current-layer="layer1"
     showgrid="false"
     fit-margin-top="0"
     fit-margin-left="0"
     fit-margin-right="0"
     fit-margin-bottom="0"
     inkscape:window-width="1920"
     inkscape:window-height="1017"
     inkscape:window-x="1672"
     inkscape:window-y="-8"
     inkscape:window-maximized="1" />
  <metadata
     id="metadata5">
    <rdf:RDF>
      <cc:Work
         rdf:about="">
        <dc:format>image/svg+xml</dc:format>
        <dc:type
           rdf:resource="http://purl.org/dc/dcmitype/StillImage" />
        <dc:title></dc:title>
      </cc:Work>
    </rdf:RDF>
  </metadata>
  <g
     inkscape:label="Ebene 1"
     inkscape:groupmode="layer"
     id="layer1"
     transform="translate(127.75293,55.270785)">
    <g
       id="g910"
       transform="matrix(0.26458333,0,0,0.26458333,-127.75293,-55.270785)">
      <circle
         r="678.56"
         cy="708.56"
         cx="708.56"
         class="cls-1"
         data-name="Ellipse 1 Kopie-5"
         id="Ellipse_1_Kopie-5"
         style="fill:none;stroke:#e5cc71;stroke-width:60px" />
      <circle
         r="678.56"
         cy="715.87"
         cx="704.72998"
         class="cls-2"
         data-name="Ellipse 1 Kopie"
         id="Ellipse_1_Kopie"
         style="fill:#c9c9c9;stroke:#a1997d;stroke-width:10px" />
      <circle
         r="433.60999"
         cy="719.53003"
         cx="704.34003"
         class="cls-3"
         id="path826"
         style="fill:#e5cc71" />
      <g
         class="cls-4"
         id="text830"
         style="isolation:isolate">
        <text
           id="text824"
           transform="translate(425.43,873.81)"
           class="cls-5"
           style="font-size:363.77999878px;font-family:ArialMT, Arial;isolation:isolate;fill:#ffffff">MO</text>
      </g>
      <ellipse
         id="ellipse827"
         ry="319.48999"
         rx="352.47"
         cy="719.53003"
         cx="711.48999"
         class="cls-3"
         style="fill:#e5cc71" />
      <path
         id="path829"
         transform="translate(-236.44,0.06)"
         d="m 645.7,810.26 v 25.36 l 31.55,7.23 V 820 Z m 11.89,17.35 h -7.37 v -7.12 l 7.37,1.77 z m 12.29,4.92 -7.37,-2.29 v -4.91 h 7.2 z"
         class="cls-6"
         inkscape:connector-curvature="0"
         style="fill:#f9f7f9" />
      <path
         id="path831"
         transform="translate(-236.44,0.06)"
         d="m 581.28,520.11 h 101.35 v 222.14 h -12 v 14 l 12,17.2 V 816 l -44.84,-13.08 0.15,-39.6 7.69,-11.67 V 575.86 L 625.21,565.1 h -24 v -16.44 h 48.36 v -5.2 l -24,-16 h -44.14 a 37.92,37.92 0 0 1 -0.15,-7.35 z"
         class="cls-6"
         inkscape:connector-curvature="0"
         style="fill:#f9f7f9" />
      <polygon
         id="polygon833"
         points="449.97,583.29 440.98,583.29 440.98,549.71 447.12,549.29 475.77,549.29 572.41,731.72 582.65,731.72 673.76,550.51 706.32,550.51 706.32,815.88 656.36,815.88 671.92,807.5 678.67,792.34 678.67,576.53 676.63,576.53 566.07,809.54 "
         class="cls-6"
         style="fill:#f9f7f9" />
      <path
         id="path835"
         transform="translate(-236.44,0.06)"
         d="m 1088.14,762.7 -5.31,10 c 0,0 -50.17,-28.25 -51.59,-90.1 h 13.09 c 0,0 -6.39,43.15 43.81,80.08"
         class="cls-6"
         inkscape:connector-curvature="0"
         style="fill:#f9f7f9" />
      <path
         id="path837"
         transform="translate(-236.44,0.06)"
         d="m 1230,682.94 h 12.9 c 0,0 1.23,57.13 -50.56,89.27 l -7,-9.41 c 0,0 46.44,-29.29 44.66,-79.86 z"
         class="cls-6"
         inkscape:connector-curvature="0"
         style="fill:#f9f7f9" />
      <path
         id="path839"
         transform="translate(-236.44,0.06)"
         d="m 1084.5,589.06 7.08,11.37 a 94.94,94.94 0 0 1 89.68,-0.93 l 7.37,-10.12 a 101.78,101.78 0 0 0 -104.13,-0.32 z"
         class="cls-6"
         inkscape:connector-curvature="0"
         style="fill:#f9f7f9" />
      <circle
         id="circle841"
         r="11.99"
         cy="682.03998"
         cx="900.41998"
         class="cls-6"
         style="fill:#f9f7f9" />
      <path
         id="path843"
         transform="translate(-236.44,0.06)"
         d="m 1136.67,642.82 a 38.09,38.09 0 1 0 38.08,38.08 38.08,38.08 0 0 0 -38.08,-38.08 z m 0,60.59 a 22.31,22.31 0 1 1 23,-22.31 22.67,22.67 0 0 1 -22.94,22.31 z"
         class="cls-6"
         inkscape:connector-curvature="0"
         style="fill:#f9f7f9" />
      <path
         id="path845"
         transform="translate(-236.44,0.06)"
         d="m 1137.18,592.13 a 88.46,88.46 0 1 0 88.46,88.45 88.45,88.45 0 0 0 -88.46,-88.45 z M 1136,756.75 a 74.33,74.33 0 1 1 74.33,-74.32 v 0 A 74.33,74.33 0 0 1 1136,756.75 Z"
         class="cls-6"
         inkscape:connector-curvature="0"
         style="fill:#f9f7f9" />
      <path
         id="path847"
         transform="translate(-236.44,0.06)"
         d="M 1137.18,537.78 A 142.83,142.83 0 1 0 1280,680.61 v 0 a 142.8,142.8 0 0 0 -142.8,-142.8 z m 0,273 A 129.61,129.61 0 1 1 1266.79,681.2 129.61,129.61 0 0 1 1137.18,810.81 Z"
         class="cls-6"
         inkscape:connector-curvature="0"
         style="fill:#f9f7f9" />
      <path
         id="path849"
         transform="translate(-236.44,0.06)"
         d="m 1125.09,539.82 v -19.46 h 24.38 v 19.46"
         class="cls-6"
         inkscape:connector-curvature="0"
         style="fill:#f9f7f9" />
      <path
         id="path851"
         transform="translate(-236.44,0.06)"
         d="m 1124.9,821.81 v 19.46 h 24.37 v -19.46"
         class="cls-6"
         inkscape:connector-curvature="0"
         style="fill:#f9f7f9" />
      <path
         id="path853"
         transform="translate(-236.44,0.06)"
         d="m 1278.14,668.35 h 19.46 v 24.37 h -19.46"
         class="cls-6"
         inkscape:connector-curvature="0"
         style="fill:#f9f7f9" />
      <path
         id="path855"
         transform="translate(-236.44,0.06)"
         d="m 996.15,668.91 h -19.46 v 24.38 h 19.46"
         class="cls-6"
         inkscape:connector-curvature="0"
         style="fill:#f9f7f9" />
      <path
         id="path857"
         transform="translate(-236.44,0.06)"
         d="m 1198.68,553.36 9.83,-16.73 21,12.4 -9.83,16.76"
         class="cls-6"
         inkscape:connector-curvature="0"
         style="fill:#f9f7f9" />
      <path
         id="path859"
         transform="translate(-236.44,0.06)"
         d="m 1054.73,795.84 -9.83,16.73 21,12.44 9.82,-16.74"
         class="cls-6"
         inkscape:connector-curvature="0"
         style="fill:#f9f7f9" />
      <path
         id="path861"
         transform="translate(-236.44,0.06)"
         d="m 1264.8,742 16.76,9.83 -12.29,21 -16.75,-9.83"
         class="cls-6"
         inkscape:connector-curvature="0"
         style="fill:#f9f7f9" />
      <path
         id="path863"
         transform="translate(-236.44,0.06)"
         d="m 1021.92,598.67 -16.75,-9.83 -12.29,21 16.76,9.83"
         class="cls-6"
         inkscape:connector-curvature="0"
         style="fill:#f9f7f9" />
      <path
         id="path865"
         transform="translate(-236.44,0.06)"
         d="m 1253.13,599.75 16.83,-9.83 12.29,21.08 -16.83,9.83"
         class="cls-6"
         inkscape:connector-curvature="0"
         style="fill:#f9f7f9" />
      <path
         id="path867"
         transform="translate(-236.44,0.06)"
         d="m 1009,740.85 -16.83,9.83 12.29,21.08 16.83,-9.82"
         class="cls-6"
         inkscape:connector-curvature="0"
         style="fill:#f9f7f9" />
      <path
         id="path869"
         transform="translate(-236.44,0.06)"
         d="m 1218.63,796.55 9.83,16.81 -21,12.29 -9.83,-16.81"
         class="cls-6"
         inkscape:connector-curvature="0"
         style="fill:#f9f7f9" />
      <path
         id="path871"
         transform="translate(-236.44,0.06)"
         d="M 1076.79,552.82 1067,536 l -21,12.29 9.83,16.8"
         class="cls-6"
         inkscape:connector-curvature="0"
         style="fill:#f9f7f9" />
      <path
         id="path873"
         transform="translate(-236.44,0.06)"
         d="m 1142,681.52 -44.23,144.05 a 23.6,23.6 0 0 1 -8.2,11.85 v 0 a 26.45,26.45 0 0 1 -16,5.43 H 951.68 a 33.14,33.14 0 0 1 -19.86,-6.61 v 0 a 10.67,10.67 0 0 1 -4.27,-8.55 v -12.88 l 5.92,-0.79 v 7.82 a 13.8,13.8 0 0 0 3.15,8.74 l 0.81,1 a 11.1,11.1 0 0 0 8.55,4 h 130.66 a 13.75,13.75 0 0 0 10.47,-4.91 l 3.64,-4.3 a 14,14 0 0 0 2.75,-5.11 l 40.73,-144.43"
         class="cls-6"
         inkscape:connector-curvature="0"
         style="fill:#f9f7f9" />
    </g>
  </g>
</svg>
